<svg id="combinacional" xmlns="http://www.w3.org/2000/svg" viewBox="0 0 916.01 145.07"><defs><style>.cls-1{fill:#fff;stroke-width:8px;opacity:0.98;}.cls-1,.cls-11,.cls-4,.cls-6,.cls-8{stroke:#424242;stroke-miterlimit:10;}.cls-1,.cls-10,.cls-11,.cls-2,.cls-3,.cls-4,.cls-5,.cls-6,.cls-7,.cls-8{isolation:isolate;}.cls-10,.cls-11,.cls-3,.cls-4,.cls-5,.cls-6,.cls-7,.cls-8{font-size:16.75px;font-family:Chilanka-Regular, Chilanka;}.cls-10,.cls-3,.cls-5,.cls-7,.cls-9{fill:#424242;}.cls-3,.cls-4{letter-spacing:-0.08em;}.cls-11,.cls-4,.cls-6,.cls-8{fill:none;}.cls-7,.cls-8{letter-spacing:-0.12em;}.cls-10,.cls-11{letter-spacing:-0.08em;}</style></defs><title>moore</title><rect class="cls-1" x="162.58" y="4" width="112.55" height="85.37"/><g class="cls-2"><text class="cls-3" transform="translate(166.71 46.43) scale(0.95 1)">c</text><text class="cls-4" transform="translate(166.71 46.43) scale(0.95 1)">c</text><text class="cls-5" transform="translate(172.96 46.43) scale(0.95 1)">ombinacional</text><text class="cls-6" transform="translate(172.96 46.43) scale(0.95 1)">ombinacional</text><text class="cls-5" transform="translate(166.71 66.54) scale(0.95 1)"><tspan xml:space="preserve">     ent</tspan></text><text class="cls-6" transform="translate(166.71 66.54) scale(0.95 1)"><tspan xml:space="preserve">     ent</tspan></text><text class="cls-7" transform="translate(214.05 66.54) scale(0.95 1)">r</text><text class="cls-8" transform="translate(214.05 66.54) scale(0.95 1)">r</text><text class="cls-5" transform="translate(218.6 66.54) scale(0.95 1)">ada</text><text class="cls-6" transform="translate(218.6 66.54) scale(0.95 1)">ada</text></g><path class="cls-9" d="M147.8,35.51,133,28.88c-1.93-.87-4.26.28-4.26,2.1h0a2.66,2.66,0,0,1-2.88,2.4H2.89A2.67,2.67,0,0,0,0,35.78v3.79A2.67,2.67,0,0,0,2.89,42h123a2.68,2.68,0,0,1,2.88,2.41h0c0,1.81,2.33,3,4.26,2.1l14.8-6.69A2.22,2.22,0,0,0,149.3,37,2.25,2.25,0,0,0,147.8,35.51Z" transform="translate(0.01 -6.87)"/><path class="cls-9" d="M406.1,57.45l-13.06-7a2.27,2.27,0,0,0-3.35,2v.46a2.24,2.24,0,0,1-2.26,2.22H283a2.25,2.25,0,0,0-2.26,2.23v4.12A2.25,2.25,0,0,0,283,63.7H387.43a2.25,2.25,0,0,1,2.26,2.23v.46A2.27,2.27,0,0,0,392,68.62a2.33,2.33,0,0,0,1.07-.27l13.06-7a2.23,2.23,0,0,0,.91-3A2.29,2.29,0,0,0,406.1,57.45Z" transform="translate(0.01 -6.87)"/><rect class="cls-1" x="415.56" y="13.47" width="112.55" height="85.37"/><text class="cls-5" transform="translate(440.86 61.59) scale(0.95 1)">memoria</text><text class="cls-6" transform="translate(440.86 61.59) scale(0.95 1)">memoria</text><path class="cls-9" d="M658.81,57.3l-12.5-6.63a2.46,2.46,0,0,0-3.3,1,2.29,2.29,0,0,0-.3,1.14h0a2.41,2.41,0,0,1-2.43,2.4H536.15a2.42,2.42,0,0,0-2.44,2.4h0v3.79a2.41,2.41,0,0,0,2.44,2.39h104.1a2.43,2.43,0,0,1,2.43,2.41h0a2.42,2.42,0,0,0,2.44,2.4,2.5,2.5,0,0,0,1.16-.3l12.5-6.69a2.37,2.37,0,0,0,1.09-3.21A2.41,2.41,0,0,0,658.81,57.3Z" transform="translate(0.01 -6.87)"/><rect class="cls-1" x="668.55" y="13.47" width="112.55" height="85.37"/><g class="cls-2"><text class="cls-10" transform="translate(674.61 52.12) scale(0.95 1)">c</text><text class="cls-11" transform="translate(674.61 52.12) scale(0.95 1)">c</text><text class="cls-5" transform="translate(680.86 52.12) scale(0.95 1)">ombinacional</text><text class="cls-6" transform="translate(680.86 52.12) scale(0.95 1)">ombinacional</text><text class="cls-5" transform="translate(674.61 72.22) scale(0.95 1)"><tspan xml:space="preserve">       salida</tspan></text><text class="cls-6" transform="translate(674.61 72.22) scale(0.95 1)"><tspan xml:space="preserve">       salida</tspan></text></g><path class="cls-9" d="M914.68,57.3l-12.5-6.63a2.46,2.46,0,0,0-3.3,1,2.29,2.29,0,0,0-.3,1.14h0a2.41,2.41,0,0,1-2.43,2.4H792a2.41,2.41,0,0,0-2.43,2.4h0v3.79A2.41,2.41,0,0,0,792,63.75h104.1a2.43,2.43,0,0,1,2.43,2.41h0a2.42,2.42,0,0,0,2.44,2.4,2.5,2.5,0,0,0,1.16-.3l12.5-6.69a2.37,2.37,0,0,0,1.09-3.21A2.41,2.41,0,0,0,914.68,57.3Z" transform="translate(0.01 -6.87)"/><path class="cls-9" d="M5.08,142.84H562.34a4,4,0,0,1,4.08,3.9V148a4,4,0,0,1-4.08,3.91H5.08A4,4,0,0,1,1,148v-1.29A4,4,0,0,1,5.08,142.84Z" transform="translate(0.01 -6.87)"/><path class="cls-9" d="M148.93,71.3,130.53,63a1.57,1.57,0,0,0-2.06.76,1.51,1.51,0,0,0-.14.62v2.53a1.55,1.55,0,0,1-1.54,1.53H1.55A1.53,1.53,0,0,0,0,69.92V75.4a1.53,1.53,0,0,0,1.55,1.52H126.79a1.55,1.55,0,0,1,1.54,1.53V81a1.54,1.54,0,0,0,1.56,1.53,1.57,1.57,0,0,0,.64-.14L148.93,74a1.51,1.51,0,0,0,0-2.72Z" transform="translate(0.01 -6.87)"/><path class="cls-9" d="M9.3,69.34v81.84c0,.32-.37.57-.83.57H.82c-.46,0-.83-.25-.83-.57V69.34c0-.32.37-.57.83-.57H8.47C8.93,68.77,9.3,69,9.3,69.34Z" transform="translate(0.01 -6.87)"/><path class="cls-9" d="M571.38,56.1v95.24c0,.33-.36.6-.81.6H563.1c-.45,0-.81-.27-.81-.6V56.1c0-.33.36-.6.81-.6h7.47C571,55.5,571.38,55.77,571.38,56.1Z" transform="translate(0.01 -6.87)"/></svg>