<svg id="combinacional" xmlns="http://www.w3.org/2000/svg" viewBox="0 0 952.22 194.11"><defs><style>.cls-1{fill:#fff;stroke-width:8px;opacity:0.98;}.cls-1,.cls-2{stroke:#424242;stroke-miterlimit:10;}.cls-2{font-size:17.68px;font-family:Chilanka-Regular, Chilanka;}.cls-2,.cls-5{fill:#424242;}.cls-3{letter-spacing:-0.08em;}.cls-4{letter-spacing:-0.12em;}</style></defs><title>moore</title><rect class="cls-1" x="169" y="4" width="117" height="90.11"/><text class="cls-2" transform="translate(173.3 48.79) scale(0.94 1)"><tspan class="cls-3">c</tspan><tspan x="6.91" y="0">ombinacional</tspan><tspan x="0" y="21.22" xml:space="preserve">     ent</tspan><tspan class="cls-4" x="52.35" y="21.22">r</tspan><tspan x="57.38" y="21.22">ada</tspan></text><path class="cls-5" d="M429.65,298.9l-15.39-7c-2-.92-4.42.3-4.42,2.22h0a2.79,2.79,0,0,1-3,2.53H279a2.79,2.79,0,0,0-3,2.53v4a2.79,2.79,0,0,0,3,2.53H406.85a2.8,2.8,0,0,1,3,2.54h0c0,1.91,2.42,3.13,4.42,2.22l15.39-7.06A2.36,2.36,0,0,0,429.65,298.9Z" transform="translate(-276 -268.89)"/><path class="cls-5" d="M698.18,322.06,684.6,314.7a2.36,2.36,0,0,0-3.48,2.07v.48a2.35,2.35,0,0,1-2.35,2.35H570.19a2.35,2.35,0,0,0-2.35,2.35v4.35a2.35,2.35,0,0,0,2.35,2.35H678.77a2.36,2.36,0,0,1,2.35,2.36v.48a2.36,2.36,0,0,0,3.48,2.07l13.58-7.36A2.36,2.36,0,0,0,698.18,322.06Z" transform="translate(-276 -268.89)"/><rect class="cls-1" x="432" y="14" width="117" height="90.11"/><text class="cls-2" transform="translate(458.3 64.79) scale(0.94 1)">memoria</text><path class="cls-5" d="M960.89,321.9l-13-7a2.53,2.53,0,0,0-3.74,2.22h0a2.53,2.53,0,0,1-2.53,2.53H833.37a2.53,2.53,0,0,0-2.53,2.53v4a2.53,2.53,0,0,0,2.53,2.53H941.59a2.54,2.54,0,0,1,2.53,2.54h0a2.53,2.53,0,0,0,3.74,2.22l13-7.06A2.53,2.53,0,0,0,960.89,321.9Z" transform="translate(-276 -268.89)"/><rect class="cls-1" x="695" y="14" width="117" height="90.11"/><text class="cls-2" transform="translate(701.3 54.79) scale(0.94 1)"><tspan class="cls-3">c</tspan><tspan x="6.91" y="0">ombinacional</tspan><tspan x="0" y="21.22" xml:space="preserve">       salida</tspan></text><path class="cls-5" d="M1226.89,321.9l-13-7a2.53,2.53,0,0,0-3.74,2.22h0a2.53,2.53,0,0,1-2.53,2.53H1099.37a2.53,2.53,0,0,0-2.53,2.53v4a2.53,2.53,0,0,0,2.53,2.53h108.22a2.54,2.54,0,0,1,2.53,2.54h0a2.53,2.53,0,0,0,3.74,2.22l13-7.06A2.53,2.53,0,0,0,1226.89,321.9Z" transform="translate(-276 -268.89)"/><rect class="cls-5" y="184.11" width="594" height="10" rx="4.29"/><path class="cls-5" d="M430.82,336.67l-19.12-8.8a1.62,1.62,0,0,0-2.29,1.46V332a1.61,1.61,0,0,1-1.6,1.61H277.61a1.61,1.61,0,0,0-1.61,1.61V341a1.61,1.61,0,0,0,1.61,1.61h130.2a1.61,1.61,0,0,1,1.6,1.61v2.66a1.62,1.62,0,0,0,2.29,1.47l19.12-8.8A1.61,1.61,0,0,0,430.82,336.67Z" transform="translate(-276 -268.89)"/><rect class="cls-5" x="216.5" y="393.5" width="129" height="10" rx="0.89" transform="translate(403.5 -151.39) rotate(90)"/><rect class="cls-5" x="793.5" y="386.5" width="143" height="10" rx="0.89" transform="translate(980.5 -742.39) rotate(90)"/></svg>