<svg id="combinacional" xmlns="http://www.w3.org/2000/svg" viewBox="0 0 952.22 286"><defs><style>.cls-1{fill:#fff;stroke-width:8px;opacity:0.98;}.cls-1,.cls-2{stroke:#424242;stroke-miterlimit:10;}.cls-2{font-size:17.68px;font-family:Chilanka-Regular, Chilanka;}.cls-2,.cls-5{fill:#424242;}.cls-3{letter-spacing:-0.08em;}.cls-4{letter-spacing:-0.12em;}</style></defs><title>mealy</title><rect class="cls-1" x="169" y="95.89" width="117" height="90.11"/><text class="cls-2" transform="translate(173.3 140.67) scale(0.94 1)"><tspan class="cls-3">c</tspan><tspan x="6.91" y="0">ombinacional</tspan><tspan x="0" y="21.22" xml:space="preserve">     ent</tspan><tspan class="cls-4" x="52.35" y="21.22">r</tspan><tspan x="57.38" y="21.22">ada</tspan></text><path class="cls-5" d="M429.65,298.9l-15.39-7c-2-.92-4.42.3-4.42,2.22h0a2.79,2.79,0,0,1-3,2.53H279a2.79,2.79,0,0,0-3,2.53v4a2.79,2.79,0,0,0,3,2.53H406.85a2.8,2.8,0,0,1,3,2.54h0c0,1.91,2.42,3.13,4.42,2.22l15.39-7.06A2.36,2.36,0,0,0,429.65,298.9Z" transform="translate(-276 -177)"/><path class="cls-5" d="M698.18,322.06,684.6,314.7a2.36,2.36,0,0,0-3.48,2.07v.48a2.35,2.35,0,0,1-2.35,2.35H570.19a2.35,2.35,0,0,0-2.35,2.35v4.35a2.35,2.35,0,0,0,2.35,2.35H678.77a2.36,2.36,0,0,1,2.35,2.36v.48a2.36,2.36,0,0,0,3.48,2.07l13.58-7.36A2.36,2.36,0,0,0,698.18,322.06Z" transform="translate(-276 -177)"/><rect class="cls-1" x="432" y="105.89" width="117" height="90.11"/><text class="cls-2" transform="translate(458.3 156.67) scale(0.94 1)">memoria</text><path class="cls-5" d="M960.89,340.9l-13-7a2.53,2.53,0,0,0-3.74,2.22h0a2.53,2.53,0,0,1-2.53,2.53H833.37a2.53,2.53,0,0,0-2.53,2.53v4a2.53,2.53,0,0,0,2.53,2.53H941.59a2.54,2.54,0,0,1,2.53,2.54h0a2.53,2.53,0,0,0,3.74,2.22l13-7.06A2.53,2.53,0,0,0,960.89,340.9Z" transform="translate(-276 -177)"/><rect class="cls-1" x="695" y="105.89" width="117" height="90.11"/><text class="cls-2" transform="translate(701.3 146.67) scale(0.94 1)"><tspan class="cls-3">c</tspan><tspan x="6.91" y="0">ombinacional</tspan><tspan x="0" y="21.22" xml:space="preserve">       salida</tspan></text><path class="cls-5" d="M1226.89,321.9l-13-7a2.53,2.53,0,0,0-3.74,2.22h0a2.53,2.53,0,0,1-2.53,2.53H1099.37a2.53,2.53,0,0,0-2.53,2.53v4a2.53,2.53,0,0,0,2.53,2.53h108.22a2.54,2.54,0,0,1,2.53,2.54h0a2.53,2.53,0,0,0,3.74,2.22l13-7.06A2.53,2.53,0,0,0,1226.89,321.9Z" transform="translate(-276 -177)"/><rect class="cls-5" y="276" width="594" height="10" rx="4.29"/><path class="cls-5" d="M430.82,336.67l-19.12-8.8a1.62,1.62,0,0,0-2.29,1.46V332a1.61,1.61,0,0,1-1.6,1.61H277.61a1.61,1.61,0,0,0-1.61,1.61V341a1.61,1.61,0,0,0,1.61,1.61h130.2a1.61,1.61,0,0,1,1.6,1.61v2.66a1.62,1.62,0,0,0,2.29,1.47l19.12-8.8A1.61,1.61,0,0,0,430.82,336.67Z" transform="translate(-276 -177)"/><rect class="cls-5" x="216.5" y="393.5" width="129" height="10" rx="0.89" transform="translate(403.5 -59.5) rotate(90)"/><rect class="cls-5" x="803" y="396" width="124" height="10" rx="0.89" transform="translate(990 -641) rotate(90)"/><rect class="cls-5" x="29" width="560" height="10" rx="4.29"/><rect class="cls-5" x="245.5" y="236.5" width="129" height="10" rx="0.89" transform="translate(275.5 -245.5) rotate(90)"/><rect class="cls-5" x="795.5" y="236.5" width="129" height="10" rx="0.89" transform="translate(825.5 -795.5) rotate(90)"/><path class="cls-5" d="M958,299.78l-10.31-7.9c-1.34-1-3,.35-3,2.49h0c0,1.57-.9,2.83-2,2.83H857c-1.1,0-2,1.27-2,2.84v4.46c0,1.56.9,2.83,2,2.83h85.67c1.11,0,2,1.27,2,2.83h0c0,2.15,1.62,3.52,3,2.49L958,304.76A3.48,3.48,0,0,0,958,299.78Z" transform="translate(-276 -177)"/></svg>