<svg id="combinacional" xmlns="http://www.w3.org/2000/svg" viewBox="0 0 767 245"><defs><style>.cls-1{fill:#fff;stroke-width:6.31px;opacity:0.98;}.cls-1,.cls-4,.cls-6{stroke:#424242;stroke-miterlimit:10;}.cls-1,.cls-3,.cls-4,.cls-5,.cls-6{isolation:isolate;}.cls-2,.cls-3{fill:#424242;}.cls-3,.cls-4{font-size:15.15px;}.cls-3,.cls-4,.cls-6{font-family:Chilanka-Regular, Chilanka;}.cls-4,.cls-6{fill:none;stroke-width:0.76px;}.cls-6{font-size:14.23px;}.cls-7{letter-spacing:-0.12em;}.cls-8{font-size:12px;font-family:MyriadPro-Regular, Myriad Pro;}</style></defs><title>mealy</title><rect id="rect8" class="cls-1" x="136.12" y="82.14" width="94.24" height="77.19"/><path id="path22" class="cls-2" d="M132.76,145.42l-12.4-6a2.41,2.41,0,0,0-3.56,1.9h0a2.3,2.3,0,0,1-2.41,2.17h-103A2.29,2.29,0,0,0,9,145.66v3.43a2.3,2.3,0,0,0,2.42,2.17h103a2.3,2.3,0,0,1,2.42,2.17h0a2.42,2.42,0,0,0,3.56,1.91l12.4-6.05a2.05,2.05,0,0,0,1.25-2.53,2,2,0,0,0-1.26-1.34Z" transform="translate(-9 -41)"/><path id="path24" class="cls-2" d="M349.05,165.26,338.11,159a1.85,1.85,0,0,0-2.58.82,2.07,2.07,0,0,0-.22.95v.41a2,2,0,0,1-1.9,2H246a2,2,0,0,0-1.9,2h0v3.73a2,2,0,0,0,1.9,2h87.45a2,2,0,0,1,1.9,2v.41a2,2,0,0,0,1.9,2,1.89,1.89,0,0,0,.9-.24l10.94-6.31a2.09,2.09,0,0,0,.75-2.74,2,2,0,0,0-.75-.81Z" transform="translate(-9 -41)"/><rect id="rect26" class="cls-1" x="347.96" y="90.71" width="94.24" height="77.19"/><text class="cls-3" transform="translate(369.14 134.21) scale(0.88 1)">memoria</text><text id="text28" class="cls-4" transform="translate(369.14 134.14) scale(0.88 1)">memoria</text><path id="path30" class="cls-2" d="M560.65,181.4l-10.47-6a2,2,0,0,0-2.77.86,2.34,2.34,0,0,0-.25,1h0a2.1,2.1,0,0,1-2,2.17H457.94a2.1,2.1,0,0,0-2,2.16v3.43a2.1,2.1,0,0,0,2,2.17H545.1a2.11,2.11,0,0,1,2,2.17h0a2.1,2.1,0,0,0,2,2.17,2,2,0,0,0,1-.26l10.47-6a2.23,2.23,0,0,0,.91-2.91,2.11,2.11,0,0,0-.88-1Z" transform="translate(-9 -41)"/><rect id="rect32" class="cls-1" x="559.79" y="90.71" width="94.24" height="77.19"/><path id="path42" class="cls-2" d="M774.9,165.13l-10.47-6a2,2,0,0,0-2.77.87,2.3,2.3,0,0,0-.25,1h0a2.1,2.1,0,0,1-2,2.17H672.19a2.1,2.1,0,0,0-2,2.17v3.42a2.1,2.1,0,0,0,2,2.17h87.16a2.12,2.12,0,0,1,2,2.18h0a2.1,2.1,0,0,0,2,2.16,2,2,0,0,0,1-.26l10.47-6a2.22,2.22,0,0,0,.91-2.91,2.08,2.08,0,0,0-.88-1Z" transform="translate(-9 -41)"/><path id="rect44" class="cls-2" d="M12.46,277.43H484c1.91,0,3.46,1.27,3.46,2.83v2.91c0,1.56-1.55,2.83-3.46,2.83H12.46C10.55,286,9,284.73,9,283.17v-2.91C9,278.7,10.55,277.43,12.46,277.43Z" transform="translate(-9 -41)"/><path id="path46" class="cls-2" d="M133.7,177.78l-15.4-7.54a1.27,1.27,0,0,0-1.73.69,1.55,1.55,0,0,0-.11.56v2.29a1.35,1.35,0,0,1-1.29,1.38H10.3A1.34,1.34,0,0,0,9,176.54v5a1.34,1.34,0,0,0,1.3,1.38H115.17a1.34,1.34,0,0,1,1.29,1.38v2.28a1.34,1.34,0,0,0,1.3,1.38,1.25,1.25,0,0,0,.54-.12l15.4-7.54a1.42,1.42,0,0,0,.58-1.85A1.34,1.34,0,0,0,133.7,177.78Z" transform="translate(-9 -41)"/><path id="rect48" class="cls-2" d="M17.05,176.26v109a.85.85,0,0,1-.93.76H9.93a.86.86,0,0,1-.93-.76v-109a.86.86,0,0,1,.93-.77h6.19A.85.85,0,0,1,17.05,176.26Z" transform="translate(-9 -41)"/><path id="rect50" class="cls-2" d="M487.44,180.54v104.7a.86.86,0,0,1-.93.76h-6.19a.86.86,0,0,1-.94-.76V180.54a.86.86,0,0,1,.94-.76h6.19A.86.86,0,0,1,487.44,180.54Z" transform="translate(-9 -41)"/><path id="rect52" class="cls-2" d="M35.81,41H480c1.91,0,3.45,1.27,3.45,2.83v2.91c0,1.56-1.54,2.83-3.45,2.83H35.81c-1.9,0-3.45-1.27-3.45-2.83V43.83C32.36,42.27,33.91,41,35.81,41Z" transform="translate(-9 -41)"/><path id="rect54" class="cls-2" d="M40.41,41.76V150.5a.85.85,0,0,1-.93.76H33.29a.86.86,0,0,1-.93-.76V41.76a.86.86,0,0,1,.93-.76h6.19A.85.85,0,0,1,40.41,41.76Z" transform="translate(-9 -41)"/><path id="rect56" class="cls-2" d="M483.41,41.76v109a.86.86,0,0,1-.93.77h-6.19a.85.85,0,0,1-.93-.77v-109a.85.85,0,0,1,.93-.76h6.19A.86.86,0,0,1,483.41,41.76Z" transform="translate(-9 -41)"/><path id="path58" class="cls-2" d="M558.32,146.18l-8.3-6.77c-1.08-.86-2.42.3-2.42,2.13h0c0,1.35-.73,2.43-1.61,2.43H477c-.89,0-1.61,1.09-1.61,2.43v3.82c0,1.34.72,2.43,1.61,2.43h69c.9,0,1.61,1.08,1.61,2.42h0c0,1.84,1.31,3,2.42,2.13l8.32-6.76a3.11,3.11,0,0,0,0-4.21l0,0Z" transform="translate(-9 -41)"/><g id="text20" class="cls-5"><text class="cls-6" transform="translate(567.69 126.08) scale(0.83 1)">Combinacional</text></g><g id="text20-2" data-name="text20" class="cls-5"><text class="cls-6" transform="translate(143.26 120.74) scale(0.83 1)">Combinacional</text></g><g id="text20-3" data-name="text20" class="cls-5"><text class="cls-6" transform="translate(162.84 136.63) scale(0.83 1)">ent<tspan class="cls-7" x="22.68" y="0">r</tspan><tspan x="26.72" y="0">ada</tspan></text></g><g id="text20-4" data-name="text20" class="cls-5"><text class="cls-6" transform="translate(589.98 144.88) scale(0.83 1)">salida</text></g><text class="cls-8" transform="translate(525.57 185)"> </text><g id="text20-5" data-name="text20" class="cls-5"><text class="cls-6" transform="translate(567.69 126.09) scale(0.83 1)">Combinacional</text></g><g id="text20-6" data-name="text20" class="cls-5"><text class="cls-6" transform="translate(589.98 144.88) scale(0.83 1)">salida</text></g><g id="text20-7" data-name="text20" class="cls-5"><text class="cls-6" transform="translate(143.26 120.74) scale(0.83 1)">Combinacional</text></g><g id="text20-8" data-name="text20" class="cls-5"><text class="cls-6" transform="translate(162.84 136.63) scale(0.83 1)">ent<tspan class="cls-7" x="22.68" y="0">r</tspan><tspan x="26.72" y="0">ada</tspan></text></g></svg>